<svg t="1688388076056" class="icon" viewBox="0 0 1024 1024" version="1.1" xmlns="http://www.w3.org/2000/svg" p-id="1481" width="200" height="200"><path d="M132.266667 345.6H469.333333c25.6 0 42.666667 17.066667 42.666667 42.666667V853.333333c0 25.6-17.066667 42.666667-42.666667 42.666667H132.266667c-25.6 0-42.666667-17.066667-42.666667-42.666667V388.266667c0-25.6 17.066667-42.666667 42.666667-42.666667zM554.666667 128h337.066666c25.6 0 42.666667 17.066667 42.666667 42.666667v465.066666c0 25.6-17.066667 42.666667-42.666667 42.666667H554.666667c-25.6 0-42.666667-17.066667-42.666667-42.666667V170.666667c0-25.6 17.066667-42.666667 42.666667-42.666667z" fill="#A02D67" p-id="1482"></path><path d="M132.266667 345.6H469.333333c25.6 0 42.666667 17.066667 42.666667 42.666667V725.333333c0 25.6-17.066667 42.666667-42.666667 42.666667H132.266667c-25.6 0-42.666667-17.066667-42.666667-42.666667V388.266667c0-25.6 17.066667-42.666667 42.666667-42.666667z" fill="#D04C83" p-id="1483"></path><path d="M469.333333 789.333333H132.266667c-34.133333 0-64-29.866667-64-64V388.266667c0-34.133333 29.866667-64 64-64H469.333333c34.133333 0 64 29.866667 64 64V725.333333c0 34.133333-29.866667 64-64 64zM132.266667 366.933333c-12.8 0-21.333333 8.533333-21.333334 21.333334V725.333333c0 12.8 8.533333 21.333333 21.333334 21.333334H469.333333c12.8 0 21.333333-8.533333 21.333334-21.333334V388.266667c0-12.8-8.533333-21.333333-21.333334-21.333334H132.266667z" fill="#301196" p-id="1484"></path><path d="M486.4 388.266667V725.333333c0 8.533333-8.533333 17.066667-17.066667 17.066667H132.266667c-8.533333 0-17.066667-8.533333-17.066667-17.066667V388.266667c0-8.533333 8.533333-17.066667 17.066667-17.066667H469.333333c8.533333 0 17.066667 4.266667 17.066667 17.066667z" fill="#D86097" p-id="1485"></path><path d="M554.666667 128h337.066666c25.6 0 42.666667 17.066667 42.666667 42.666667v337.066666c0 25.6-17.066667 42.666667-42.666667 42.666667H554.666667c-25.6 0-42.666667-17.066667-42.666667-42.666667V170.666667c0-25.6 17.066667-42.666667 42.666667-42.666667z" fill="#D04C83" p-id="1486"></path><path d="M891.733333 571.733333H554.666667c-34.133333 0-64-29.866667-64-64V170.666667c0-34.133333 29.866667-64 64-64h337.066666c34.133333 0 64 29.866667 64 64v337.066666c0 34.133333-25.6 64-64 64zM554.666667 149.333333c-12.8 0-21.333333 8.533333-21.333334 21.333334v337.066666c0 12.8 8.533333 21.333333 21.333334 21.333334h337.066666c12.8 0 21.333333-8.533333 21.333334-21.333334V170.666667c0-12.8-8.533333-21.333333-21.333334-21.333334H554.666667z" fill="#301196" p-id="1487"></path><path d="M908.8 170.666667v337.066666c0 8.533333-8.533333 17.066667-17.066667 17.066667H554.666667c-8.533333 0-17.066667-8.533333-17.066667-17.066667V170.666667c0-8.533333 8.533333-17.066667 17.066667-17.066667h337.066666c12.8 0 17.066667 8.533333 17.066667 17.066667z" fill="#D86097" p-id="1488"></path><path d="M725.333333 409.6c-38.4 0-68.266667-29.866667-68.266666-68.266667s29.866667-68.266667 68.266666-68.266666c38.4 0 68.266667 29.866667 68.266667 68.266666 0 38.4-29.866667 68.266667-68.266667 68.266667z" fill="#4F2AB5" p-id="1489"></path><path d="M725.333333 341.333333m-51.2 0a51.2 51.2 0 1 0 102.4 0 51.2 51.2 0 1 0-102.4 0Z" fill="#EDC35B" p-id="1490"></path><path d="M298.666667 627.2c-38.4 0-68.266667-29.866667-68.266667-68.266667 0-38.4 29.866667-68.266667 68.266667-68.266666s68.266667 29.866667 68.266666 68.266666c4.266667 34.133333-29.866667 68.266667-68.266666 68.266667z" fill="#4F2AB5" p-id="1491"></path><path d="M298.666667 554.666667m-51.2 0a51.2 51.2 0 1 0 102.4 0 51.2 51.2 0 1 0-102.4 0Z" fill="#7750E2" p-id="1492"></path><path d="M196.266667 520.533333c-38.4 0-68.266667-29.866667-68.266667-68.266666S157.866667 384 196.266667 384c38.4 0 68.266667 29.866667 68.266666 68.266667 0 38.4-29.866667 68.266667-68.266666 68.266666z" fill="#4F2AB5" p-id="1493"></path><path d="M196.266667 452.266667m-51.2 0a51.2 51.2 0 1 0 102.4 0 51.2 51.2 0 1 0-102.4 0Z" fill="#6ED6AB" p-id="1494"></path><path d="M405.333333 729.6c-38.4 0-68.266667-29.866667-68.266666-68.266667 0-38.4 29.866667-68.266667 68.266666-68.266666 38.4 0 68.266667 29.866667 68.266667 68.266666 0 38.4-29.866667 68.266667-68.266667 68.266667z" fill="#4F2AB5" p-id="1495"></path><path d="M405.333333 661.333333m-51.2 0a51.2 51.2 0 1 0 102.4 0 51.2 51.2 0 1 0-102.4 0Z" fill="#6ED6AB" p-id="1496"></path><path d="M469.333333 917.333333H132.266667c-34.133333 0-64-29.866667-64-64V388.266667c0-34.133333 29.866667-64 64-64H469.333333c34.133333 0 64 29.866667 64 64V853.333333c0 34.133333-29.866667 64-64 64zM132.266667 366.933333c-12.8 0-21.333333 8.533333-21.333334 21.333334V853.333333c0 12.8 8.533333 21.333333 21.333334 21.333334H469.333333c12.8 0 21.333333-8.533333 21.333334-21.333334V388.266667c0-12.8-8.533333-21.333333-21.333334-21.333334H132.266667z" fill="#301196" p-id="1497"></path><path d="M891.733333 699.733333H554.666667c-34.133333 0-64-29.866667-64-64V170.666667c0-34.133333 29.866667-64 64-64h337.066666c34.133333 0 64 29.866667 64 64v465.066666c0 34.133333-25.6 64-64 64zM554.666667 149.333333c-12.8 0-21.333333 8.533333-21.333334 21.333334v465.066666c0 12.8 8.533333 21.333333 21.333334 21.333334h337.066666c12.8 0 21.333333-8.533333 21.333334-21.333334V170.666667c0-12.8-8.533333-21.333333-21.333334-21.333334H554.666667z" fill="#301196" p-id="1498"></path></svg>